<mxfile host="app.diagrams.net" agent="Mozilla/5.0 (X11; Linux x86_64; rv:133.0) Gecko/20100101 Firefox/133.0" version="25.0.3">
  <diagram name="Page-1" id="3gtnG7Od8hvQebvSdJUt">
    <mxGraphModel dx="1514" dy="1012" grid="0" gridSize="10" guides="1" tooltips="1" connect="1" arrows="1" fold="1" page="0" pageScale="1" pageWidth="850" pageHeight="1100" math="0" shadow="0">
      <root>
        <mxCell id="0" />
        <mxCell id="1" parent="0" />
        <mxCell id="pzjH7QgCNQiBp28TgXsw-26" style="edgeStyle=orthogonalEdgeStyle;rounded=0;orthogonalLoop=1;jettySize=auto;html=1;" edge="1" parent="1" source="pzjH7QgCNQiBp28TgXsw-1" target="pzjH7QgCNQiBp28TgXsw-19">
          <mxGeometry relative="1" as="geometry" />
        </mxCell>
        <mxCell id="pzjH7QgCNQiBp28TgXsw-1" value="&lt;b&gt;&lt;font style=&quot;font-size: 14px;&quot;&gt;Route 53&lt;br&gt;&lt;/font&gt;&lt;/b&gt;" style="sketch=0;points=[[0,0,0],[0.25,0,0],[0.5,0,0],[0.75,0,0],[1,0,0],[0,1,0],[0.25,1,0],[0.5,1,0],[0.75,1,0],[1,1,0],[0,0.25,0],[0,0.5,0],[0,0.75,0],[1,0.25,0],[1,0.5,0],[1,0.75,0]];outlineConnect=0;fillColor=#60a917;strokeColor=#2D7600;dashed=0;verticalLabelPosition=bottom;verticalAlign=top;align=center;html=1;fontSize=12;fontStyle=0;aspect=fixed;shape=mxgraph.aws4.resourceIcon;resIcon=mxgraph.aws4.route_53;fontColor=#ffffff;" vertex="1" parent="1">
          <mxGeometry x="180" y="-94" width="44" height="44" as="geometry" />
        </mxCell>
        <mxCell id="pzjH7QgCNQiBp28TgXsw-2" value="Region" style="points=[[0,0],[0.25,0],[0.5,0],[0.75,0],[1,0],[1,0.25],[1,0.5],[1,0.75],[1,1],[0.75,1],[0.5,1],[0.25,1],[0,1],[0,0.75],[0,0.5],[0,0.25]];outlineConnect=0;gradientColor=none;html=1;whiteSpace=wrap;fontSize=12;fontStyle=0;container=1;pointerEvents=0;collapsible=0;recursiveResize=0;shape=mxgraph.aws4.group;grIcon=mxgraph.aws4.group_region;strokeColor=#00A4A6;fillColor=none;verticalAlign=top;align=left;spacingLeft=30;fontColor=#147EBA;dashed=1;" vertex="1" parent="1">
          <mxGeometry x="-348" y="-8" width="1101" height="537" as="geometry" />
        </mxCell>
        <mxCell id="pzjH7QgCNQiBp28TgXsw-3" value="&lt;b&gt;&lt;font style=&quot;font-size: 14px;&quot;&gt;Availability Zone&lt;br&gt;&lt;/font&gt;&lt;/b&gt;" style="fillColor=none;strokeColor=#147EBA;dashed=1;verticalAlign=top;fontStyle=0;fontColor=#147EBA;whiteSpace=wrap;html=1;" vertex="1" parent="pzjH7QgCNQiBp28TgXsw-2">
          <mxGeometry x="18" y="42" width="488" height="478" as="geometry" />
        </mxCell>
        <mxCell id="pzjH7QgCNQiBp28TgXsw-4" value="&lt;b&gt;&lt;font style=&quot;font-size: 14px;&quot;&gt;Availability Zone&lt;br&gt;&lt;/font&gt;&lt;/b&gt;" style="fillColor=none;strokeColor=#147EBA;dashed=1;verticalAlign=top;fontStyle=0;fontColor=#147EBA;whiteSpace=wrap;html=1;" vertex="1" parent="pzjH7QgCNQiBp28TgXsw-2">
          <mxGeometry x="589" y="39" width="488" height="478" as="geometry" />
        </mxCell>
        <mxCell id="pzjH7QgCNQiBp28TgXsw-5" value="&lt;font style=&quot;font-size: 14px;&quot;&gt;&lt;b&gt;Web&lt;br&gt;&lt;/b&gt;&lt;/font&gt;" style="points=[[0,0],[0.25,0],[0.5,0],[0.75,0],[1,0],[1,0.25],[1,0.5],[1,0.75],[1,1],[0.75,1],[0.5,1],[0.25,1],[0,1],[0,0.75],[0,0.5],[0,0.25]];outlineConnect=0;gradientColor=none;html=1;whiteSpace=wrap;fontSize=12;fontStyle=0;container=1;pointerEvents=0;collapsible=0;recursiveResize=0;shape=mxgraph.aws4.group;grIcon=mxgraph.aws4.group_security_group;grStroke=0;strokeColor=#7AA116;fillColor=#F2F6E8;verticalAlign=top;align=left;spacingLeft=30;fontColor=#248814;dashed=0;" vertex="1" parent="pzjH7QgCNQiBp28TgXsw-2">
          <mxGeometry x="32" y="95" width="455" height="112" as="geometry" />
        </mxCell>
        <mxCell id="pzjH7QgCNQiBp28TgXsw-8" value="&lt;font style=&quot;font-size: 14px;&quot;&gt;&lt;b&gt;Web&lt;br&gt;&lt;/b&gt;&lt;/font&gt;" style="points=[[0,0],[0.25,0],[0.5,0],[0.75,0],[1,0],[1,0.25],[1,0.5],[1,0.75],[1,1],[0.75,1],[0.5,1],[0.25,1],[0,1],[0,0.75],[0,0.5],[0,0.25]];outlineConnect=0;gradientColor=none;html=1;whiteSpace=wrap;fontSize=12;fontStyle=0;container=1;pointerEvents=0;collapsible=0;recursiveResize=0;shape=mxgraph.aws4.group;grIcon=mxgraph.aws4.group_security_group;grStroke=0;strokeColor=#7AA116;fillColor=#F2F6E8;verticalAlign=top;align=left;spacingLeft=30;fontColor=#248814;dashed=0;" vertex="1" parent="pzjH7QgCNQiBp28TgXsw-2">
          <mxGeometry x="610" y="95" width="455" height="131" as="geometry" />
        </mxCell>
        <mxCell id="pzjH7QgCNQiBp28TgXsw-9" value="&lt;b&gt;&lt;font style=&quot;font-size: 14px;&quot;&gt;App&lt;br&gt;&lt;/font&gt;&lt;/b&gt;" style="points=[[0,0],[0.25,0],[0.5,0],[0.75,0],[1,0],[1,0.25],[1,0.5],[1,0.75],[1,1],[0.75,1],[0.5,1],[0.25,1],[0,1],[0,0.75],[0,0.5],[0,0.25]];outlineConnect=0;html=1;whiteSpace=wrap;fontSize=12;fontStyle=0;container=1;pointerEvents=0;collapsible=0;recursiveResize=0;shape=mxgraph.aws4.group;grIcon=mxgraph.aws4.group_security_group;grStroke=0;verticalAlign=top;align=left;spacingLeft=30;dashed=0;fillColor=#f5f5f5;fontColor=#333333;strokeColor=#666666;" vertex="1" parent="pzjH7QgCNQiBp28TgXsw-2">
          <mxGeometry x="30" y="252" width="457" height="103" as="geometry" />
        </mxCell>
        <mxCell id="pzjH7QgCNQiBp28TgXsw-11" value="&lt;b&gt;&lt;font style=&quot;font-size: 14px;&quot;&gt;App&lt;br&gt;&lt;/font&gt;&lt;/b&gt;" style="points=[[0,0],[0.25,0],[0.5,0],[0.75,0],[1,0],[1,0.25],[1,0.5],[1,0.75],[1,1],[0.75,1],[0.5,1],[0.25,1],[0,1],[0,0.75],[0,0.5],[0,0.25]];outlineConnect=0;html=1;whiteSpace=wrap;fontSize=12;fontStyle=0;container=1;pointerEvents=0;collapsible=0;recursiveResize=0;shape=mxgraph.aws4.group;grIcon=mxgraph.aws4.group_security_group;grStroke=0;strokeColor=#666666;fillColor=#f5f5f5;verticalAlign=top;align=left;spacingLeft=30;fontColor=#333333;dashed=0;" vertex="1" parent="pzjH7QgCNQiBp28TgXsw-2">
          <mxGeometry x="610" y="250" width="457" height="103" as="geometry" />
        </mxCell>
        <mxCell id="pzjH7QgCNQiBp28TgXsw-16" value="" style="sketch=0;points=[[0,0,0],[0.25,0,0],[0.5,0,0],[0.75,0,0],[1,0,0],[0,1,0],[0.25,1,0],[0.5,1,0],[0.75,1,0],[1,1,0],[0,0.25,0],[0,0.5,0],[0,0.75,0],[1,0.25,0],[1,0.5,0],[1,0.75,0]];outlineConnect=0;fontColor=#232F3E;fillColor=#ED7100;strokeColor=#ffffff;dashed=0;verticalLabelPosition=bottom;verticalAlign=top;align=center;html=1;fontSize=12;fontStyle=0;aspect=fixed;shape=mxgraph.aws4.resourceIcon;resIcon=mxgraph.aws4.auto_scaling2;" vertex="1" parent="pzjH7QgCNQiBp28TgXsw-11">
          <mxGeometry x="72" y="19" width="78" height="78" as="geometry" />
        </mxCell>
        <mxCell id="pzjH7QgCNQiBp28TgXsw-12" value="&lt;b&gt;DB&lt;/b&gt;" style="points=[[0,0],[0.25,0],[0.5,0],[0.75,0],[1,0],[1,0.25],[1,0.5],[1,0.75],[1,1],[0.75,1],[0.5,1],[0.25,1],[0,1],[0,0.75],[0,0.5],[0,0.25]];outlineConnect=0;html=1;whiteSpace=wrap;fontSize=12;fontStyle=0;container=1;pointerEvents=0;collapsible=0;recursiveResize=0;shape=mxgraph.aws4.group;grIcon=mxgraph.aws4.group_security_group;grStroke=0;strokeColor=#666666;fillColor=#f5f5f5;verticalAlign=top;align=left;spacingLeft=30;fontColor=#333333;dashed=0;" vertex="1" parent="pzjH7QgCNQiBp28TgXsw-2">
          <mxGeometry x="32" y="400" width="457" height="103" as="geometry" />
        </mxCell>
        <mxCell id="pzjH7QgCNQiBp28TgXsw-21" value="RDS&lt;br&gt;MySQL" style="text;strokeColor=none;fillColor=none;html=1;fontSize=24;fontStyle=1;verticalAlign=middle;align=center;" vertex="1" parent="pzjH7QgCNQiBp28TgXsw-12">
          <mxGeometry x="188" y="35" width="100" height="40" as="geometry" />
        </mxCell>
        <mxCell id="pzjH7QgCNQiBp28TgXsw-17" value="" style="sketch=0;points=[[0,0,0],[0.25,0,0],[0.5,0,0],[0.75,0,0],[1,0,0],[0,1,0],[0.25,1,0],[0.5,1,0],[0.75,1,0],[1,1,0],[0,0.25,0],[0,0.5,0],[0,0.75,0],[1,0.25,0],[1,0.5,0],[1,0.75,0]];outlineConnect=0;fillColor=#ffe6cc;strokeColor=#d79b00;dashed=0;verticalLabelPosition=bottom;verticalAlign=top;align=center;html=1;fontSize=12;fontStyle=0;aspect=fixed;shape=mxgraph.aws4.resourceIcon;resIcon=mxgraph.aws4.rds_on_vmware;" vertex="1" parent="pzjH7QgCNQiBp28TgXsw-12">
          <mxGeometry x="327" y="14.5" width="74" height="74" as="geometry" />
        </mxCell>
        <mxCell id="pzjH7QgCNQiBp28TgXsw-13" value="&lt;b&gt;DB&lt;/b&gt;" style="points=[[0,0],[0.25,0],[0.5,0],[0.75,0],[1,0],[1,0.25],[1,0.5],[1,0.75],[1,1],[0.75,1],[0.5,1],[0.25,1],[0,1],[0,0.75],[0,0.5],[0,0.25]];outlineConnect=0;html=1;whiteSpace=wrap;fontSize=12;fontStyle=0;container=1;pointerEvents=0;collapsible=0;recursiveResize=0;shape=mxgraph.aws4.group;grIcon=mxgraph.aws4.group_security_group;grStroke=0;strokeColor=#666666;fillColor=#f5f5f5;verticalAlign=top;align=left;spacingLeft=30;fontColor=#333333;dashed=0;" vertex="1" parent="pzjH7QgCNQiBp28TgXsw-2">
          <mxGeometry x="609" y="398" width="457" height="103" as="geometry" />
        </mxCell>
        <mxCell id="pzjH7QgCNQiBp28TgXsw-18" value="" style="sketch=0;points=[[0,0,0],[0.25,0,0],[0.5,0,0],[0.75,0,0],[1,0,0],[0,1,0],[0.25,1,0],[0.5,1,0],[0.75,1,0],[1,1,0],[0,0.25,0],[0,0.5,0],[0,0.75,0],[1,0.25,0],[1,0.5,0],[1,0.75,0]];outlineConnect=0;fillColor=#ffe6cc;strokeColor=#d79b00;dashed=0;verticalLabelPosition=bottom;verticalAlign=top;align=center;html=1;fontSize=12;fontStyle=0;aspect=fixed;shape=mxgraph.aws4.resourceIcon;resIcon=mxgraph.aws4.rds_on_vmware;" vertex="1" parent="pzjH7QgCNQiBp28TgXsw-13">
          <mxGeometry x="78" y="14.5" width="78" height="78" as="geometry" />
        </mxCell>
        <mxCell id="pzjH7QgCNQiBp28TgXsw-30" style="edgeStyle=orthogonalEdgeStyle;rounded=0;orthogonalLoop=1;jettySize=auto;html=1;" edge="1" parent="pzjH7QgCNQiBp28TgXsw-2" source="pzjH7QgCNQiBp28TgXsw-19" target="pzjH7QgCNQiBp28TgXsw-15">
          <mxGeometry relative="1" as="geometry" />
        </mxCell>
        <mxCell id="pzjH7QgCNQiBp28TgXsw-31" style="edgeStyle=orthogonalEdgeStyle;rounded=0;orthogonalLoop=1;jettySize=auto;html=1;" edge="1" parent="pzjH7QgCNQiBp28TgXsw-2" source="pzjH7QgCNQiBp28TgXsw-19" target="pzjH7QgCNQiBp28TgXsw-16">
          <mxGeometry relative="1" as="geometry" />
        </mxCell>
        <mxCell id="pzjH7QgCNQiBp28TgXsw-19" value="" style="sketch=0;outlineConnect=0;fillColor=#60a917;strokeColor=#2D7600;dashed=0;verticalLabelPosition=bottom;verticalAlign=top;align=center;html=1;fontSize=12;fontStyle=0;aspect=fixed;pointerEvents=1;shape=mxgraph.aws4.application_load_balancer;fontColor=#ffffff;" vertex="1" parent="pzjH7QgCNQiBp28TgXsw-2">
          <mxGeometry x="511.5" y="151" width="77" height="77" as="geometry" />
        </mxCell>
        <mxCell id="pzjH7QgCNQiBp28TgXsw-20" value="EC2&lt;br&gt;PHP + Apache" style="text;strokeColor=none;fillColor=none;html=1;fontSize=24;fontStyle=1;verticalAlign=middle;align=center;" vertex="1" parent="pzjH7QgCNQiBp28TgXsw-2">
          <mxGeometry x="202" y="288" width="100" height="40" as="geometry" />
        </mxCell>
        <mxCell id="pzjH7QgCNQiBp28TgXsw-24" value="EC2&lt;br&gt;PHP + Apache" style="text;strokeColor=none;fillColor=none;html=1;fontSize=24;fontStyle=1;verticalAlign=middle;align=center;" vertex="1" parent="pzjH7QgCNQiBp28TgXsw-2">
          <mxGeometry x="825" y="288" width="100" height="40" as="geometry" />
        </mxCell>
        <mxCell id="pzjH7QgCNQiBp28TgXsw-25" value="RDS&lt;br&gt;MySQL" style="text;strokeColor=none;fillColor=none;html=1;fontSize=24;fontStyle=1;verticalAlign=middle;align=center;" vertex="1" parent="pzjH7QgCNQiBp28TgXsw-2">
          <mxGeometry x="832" y="436" width="100" height="40" as="geometry" />
        </mxCell>
        <mxCell id="pzjH7QgCNQiBp28TgXsw-27" style="edgeStyle=orthogonalEdgeStyle;rounded=0;orthogonalLoop=1;jettySize=auto;html=1;exitX=1;exitY=0.5;exitDx=0;exitDy=0;exitPerimeter=0;entryX=0;entryY=0.5;entryDx=0;entryDy=0;entryPerimeter=0;" edge="1" parent="pzjH7QgCNQiBp28TgXsw-2" source="pzjH7QgCNQiBp28TgXsw-17" target="pzjH7QgCNQiBp28TgXsw-18">
          <mxGeometry relative="1" as="geometry" />
        </mxCell>
        <mxCell id="pzjH7QgCNQiBp28TgXsw-28" style="edgeStyle=orthogonalEdgeStyle;rounded=0;orthogonalLoop=1;jettySize=auto;html=1;exitX=0.5;exitY=1;exitDx=0;exitDy=0;exitPerimeter=0;entryX=0.5;entryY=0;entryDx=0;entryDy=0;entryPerimeter=0;" edge="1" parent="pzjH7QgCNQiBp28TgXsw-2" source="pzjH7QgCNQiBp28TgXsw-15" target="pzjH7QgCNQiBp28TgXsw-17">
          <mxGeometry relative="1" as="geometry" />
        </mxCell>
        <mxCell id="pzjH7QgCNQiBp28TgXsw-15" value="" style="sketch=0;points=[[0,0,0],[0.25,0,0],[0.5,0,0],[0.75,0,0],[1,0,0],[0,1,0],[0.25,1,0],[0.5,1,0],[0.75,1,0],[1,1,0],[0,0.25,0],[0,0.5,0],[0,0.75,0],[1,0.25,0],[1,0.5,0],[1,0.75,0]];outlineConnect=0;fontColor=#232F3E;fillColor=#ED7100;strokeColor=#ffffff;dashed=0;verticalLabelPosition=bottom;verticalAlign=top;align=center;html=1;fontSize=12;fontStyle=0;aspect=fixed;shape=mxgraph.aws4.resourceIcon;resIcon=mxgraph.aws4.auto_scaling2;" vertex="1" parent="pzjH7QgCNQiBp28TgXsw-2">
          <mxGeometry x="357" y="269" width="78" height="78" as="geometry" />
        </mxCell>
        <mxCell id="pzjH7QgCNQiBp28TgXsw-29" style="edgeStyle=orthogonalEdgeStyle;rounded=0;orthogonalLoop=1;jettySize=auto;html=1;exitX=0;exitY=0.5;exitDx=0;exitDy=0;exitPerimeter=0;entryX=1;entryY=0.25;entryDx=0;entryDy=0;entryPerimeter=0;" edge="1" parent="pzjH7QgCNQiBp28TgXsw-2" source="pzjH7QgCNQiBp28TgXsw-16" target="pzjH7QgCNQiBp28TgXsw-17">
          <mxGeometry relative="1" as="geometry" />
        </mxCell>
        <mxCell id="pzjH7QgCNQiBp28TgXsw-32" value="&lt;b&gt;&lt;font style=&quot;font-size: 14px;&quot;&gt;Multi-AZ&lt;/font&gt;&lt;/b&gt;" style="text;html=1;align=center;verticalAlign=middle;whiteSpace=wrap;rounded=0;" vertex="1" parent="pzjH7QgCNQiBp28TgXsw-2">
          <mxGeometry x="597" y="451" width="60" height="30" as="geometry" />
        </mxCell>
      </root>
    </mxGraphModel>
  </diagram>
</mxfile>
